<?xml version="1.0" encoding="UTF-8"?>
<svg id="Camada_1" data-name="Camada 1" xmlns="http://www.w3.org/2000/svg" viewBox="0 0 64.25 64.25">
  <defs>
    <style>
      .cls-1 {
        fill: none;
        stroke: #211915;
        stroke-miterlimit: 10;
        stroke-width: 3px;
      }
    </style>
  </defs>
  <path class="cls-1" d="M16.64,5.94s1.99,3.72,3.5,4.33,10.23,1.9,12.98,3.13,8.64,6.52,9.39,8.66c.3,.93,.45,4.1-3.04,3.13-1.59-.97-2.14-1.88-4.35-3.68s-3.86-2.94-6.61-3.32-5.64-.19-5.53,.37,5.99,4.33,5.99,4.33c0,0,.92,1.36-.64,3.13s-10.45-3.1-13.91-5.53-6.26-8.47-6.26-8.47"/>
  <path class="cls-1" d="M39.13,58.08s2.94-10.07,1.45-13.57c-1.46-3.61-9.84-8.3-10.41-9.73s-.37-5.11,0-6.94,1.02-3.09,2.79-3.09,3.82,2.83,6.9,3.99,6.4-.47,9.77,1.97c4.22,2.64,7.08,11.01,6.33,23.08-2.04,3.85-6.64,3.02-8.67-.08-1.28-4.45,.23-15.46,.23-15.46"/>
</svg>