<?xml version="1.0" encoding="UTF-8"?>
<svg id="Camada_2" data-name="Camada 2" xmlns="http://www.w3.org/2000/svg" viewBox="0 0 64.25 64.25">
  <defs>
    <style>
      .cls-1 {
        fill: #1d1d1b;
        stroke: #1d1d1b;
        stroke-miterlimit: 10;
        stroke-width: 3px;
      }
    </style>
  </defs>
  <path class="cls-1" d="M33.3,9.61l6.61,13.39c.19,.39,.56,.66,.99,.72l14.78,2.15c1.08,.16,1.51,1.48,.73,2.24l-10.69,10.42c-.31,.3-.45,.74-.38,1.16l2.52,14.72c.18,1.07-.94,1.89-1.9,1.38l-13.22-6.95c-.38-.2-.84-.2-1.22,0l-13.22,6.95c-.96,.51-2.09-.31-1.9-1.38l2.52-14.72c.07-.43-.07-.86-.38-1.16L7.85,28.1c-.78-.76-.35-2.08,.73-2.24l14.78-2.15c.43-.06,.8-.33,.99-.72l6.61-13.39c.48-.98,1.87-.98,2.35,0Z"/>
</svg>